<svg width="15757" height="8864" viewBox="0 0 15757 8864" fill="none" xmlns="http://www.w3.org/2000/svg">
<rect width="15756.8" height="8863.19" fill="url(#paint0_linear_427_67)"/>
<path fill-rule="evenodd" clip-rule="evenodd" d="M1493.33 2666.82C1460.15 2612.95 1313.02 2612.95 1279.84 2666.82L754.207 3520.15H0V5685.48V6461.99V8137.71C0 8538.38 627.066 8863.18 1400.59 8863.18H11316.8L12717.4 8863.18L15504.5 8863.18C14263.8 8849.25 12665.1 7414.82 12437.2 6672.25C12332.6 6331.28 11849 4604.58 9102.65 4959.62L8573.08 5055.77L8161.91 4344.83C8137.97 4303.45 8024.84 4303.45 8000.91 4344.83L7531.58 5156.33L7209.44 4604.58C7185.37 4563.34 7072.64 4563.34 7048.57 4604.58L6893.55 4870.09L6467.13 4140.18C6443.04 4098.96 6330.35 4098.96 6306.26 4140.18L5737.23 5114.18L4376.3 4038.23C4074.09 3799.3 3615.12 3630.56 3094.96 3558.76C3025.79 3519.39 2926.06 3494.68 2815.19 3494.68C2745.73 3494.68 2680.64 3504.38 2624.71 3521.3C2614.84 3521.07 2604.97 3520.88 2595.09 3520.72L2350.4 3118.26C2333.95 3091.2 2259.99 3091.2 2243.53 3118.26L2009.01 3504L1493.33 2666.82Z" fill="url(#paint1_linear_427_67)"/>
<path fill-rule="evenodd" clip-rule="evenodd" d="M1.87594 4325.27V6374.65H0.0115054V7644.39L0 8863.19H1400.6H2296.97H8852.98H9090.57H10307.1C10401.8 8863.19 10469.7 8814.86 10442.3 8766.92L9715.22 7494.34C9674.79 7423.57 9485.29 7423.57 9444.85 7494.34L9090.57 8114.45V7245.22C9090.57 6764.42 8338.09 6374.65 7409.86 6374.65H7311.08V6353.05C7311.08 6312.98 7248.38 6280.5 7171.02 6280.5C7093.67 6280.5 7030.96 6312.98 7030.96 6353.05V6374.65H6545.69C6499.56 6246.73 6282.88 6149.92 6022.54 6149.92H5309.93L4795.3 5189.75C4734.89 5077.06 4452.98 5077.06 4392.58 5189.75L4014.64 5894.88L3833.96 5579.57C3793.05 5508.16 3602.07 5508.16 3561.15 5579.57L3233.02 6152.22C3175.27 6123.81 3097.2 6106.39 3011.27 6106.39C2833.36 6106.39 2689.13 6181.09 2689.13 6273.25V6291.21C1136.4 6035.26 5.54221 5252.18 1.90415 4325.27H1.87594Z" fill="url(#paint2_linear_427_67)"/>
<defs>
<linearGradient id="paint0_linear_427_67" x1="8390.56" y1="2293.76" x2="7330.84" y2="11239.9" gradientUnits="userSpaceOnUse">
<stop stop-color="#10002B"/>
<stop offset="1" stop-color="#26CCA9"/>
</linearGradient>
<linearGradient id="paint1_linear_427_67" x1="3690.64" y1="5744.66" x2="11563.7" y2="13219.3" gradientUnits="userSpaceOnUse">
<stop offset="0.0001" stop-color="#240046"/>
<stop offset="1" stop-color="#069C7C"/>
</linearGradient>
<linearGradient id="paint2_linear_427_67" x1="2560.86" y1="6598.15" x2="7801.37" y2="12729.2" gradientUnits="userSpaceOnUse">
<stop offset="0.0001" stop-color="#32045E"/>
<stop offset="1" stop-color="#086551"/>
</linearGradient>
</defs>
</svg>
