<svg width="15727" height="8899" viewBox="0 0 15727 8899" fill="none" xmlns="http://www.w3.org/2000/svg">
<path d="M15726 8832H2V7H15726V8832Z" fill="#0F74BA" stroke="black"/>
<path d="M10861.9 1C12037.3 976.2 14594.4 1220 15726 1220V8832H2V1H10861.9Z" fill="url(#paint0_linear_604_39)" stroke="black"/>
<path d="M6731.47 26.2012C7754.36 -134.052 8922.2 509.104 9378.27 850.714C9515.8 905.616 9907.03 1005.92 10371.7 967.936C10713.3 981.456 11637.1 1132.15 12599.4 1626.76C13237.1 1974.8 14755.3 2641.2 15726 2522.49V8898L2 8719.45V26.2012H6731.47Z" fill="url(#paint1_linear_604_39)" stroke="black"/>
<path d="M12899.5 2500C14711.6 2500 15538.9 2845.67 15726 3018.5V8832H2V765H4936.75C5475.06 1125.4 6835.99 1275.83 7449.16 1306C9494.93 1108 10185.5 1463.83 10275.1 1666.5C10454.3 1504.5 12099.4 2154.67 12899.5 2500Z" fill="#C8E4FB" stroke="black"/>
<path d="M15726 4347.23V8832H2V2003.6C7995.39 1570.77 13815.2 3385.68 15726 4347.23Z" fill="#43B6E0" stroke="black"/>
<path d="M3719.55 2H1V8833H15726V5561.1C15646.8 5261.63 14423.5 5579.99 13864.7 5476.81C13231.4 4564.01 13005.5 4507.99 11901.5 4507.99C10885 3695.34 9567.88 3267.62 8763.54 3037.89C7160.58 1465.29 6437.57 2180.62 5578.83 1324.84C4735.02 639.125 4168 205.781 3719.55 2Z" fill="url(#paint2_linear_604_39)" stroke="black"/>
<path d="M7555.5 5810.13C4215.9 3536.13 1128.33 3630.3 2 3961.63V8831.63H15725.5V8215.13C14393.7 8360.97 10895.1 8084.13 7555.5 5810.13Z" fill="url(#paint3_linear_604_39)" stroke="black"/>
<defs>
<linearGradient id="paint0_linear_604_39" x1="16913.4" y1="3274" x2="9042.41" y2="36.2687" gradientUnits="userSpaceOnUse">
<stop stop-color="#4D5BDB"/>
<stop offset="1" stop-color="#159FDE"/>
</linearGradient>
<linearGradient id="paint1_linear_604_39" x1="2221.27" y1="-368.474" x2="15321.8" y2="4110.06" gradientUnits="userSpaceOnUse">
<stop stop-color="#14B1E9"/>
<stop offset="1" stop-color="#026AB1"/>
</linearGradient>
<linearGradient id="paint2_linear_604_39" x1="-475.138" y1="920.749" x2="16571.9" y2="8122.95" gradientUnits="userSpaceOnUse">
<stop stop-color="#8790DB"/>
<stop offset="0.870251" stop-color="#545881"/>
</linearGradient>
<linearGradient id="paint3_linear_604_39" x1="5584.5" y1="2605.5" x2="3743" y2="9068.5" gradientUnits="userSpaceOnUse">
<stop stop-color="#9B4DDB"/>
<stop offset="1" stop-color="#683A83"/>
</linearGradient>
</defs>
</svg>
