<svg width="967" height="328" viewBox="0 0 967 328" fill="none" xmlns="http://www.w3.org/2000/svg">
<circle cx="830" cy="210" r="116" fill="url(#paint0_linear_540_49)"/>
<path d="M704.5 211.351C704.5 275.416 652.565 327.351 588.5 327.351C524.435 327.351 472.5 275.416 472.5 211.351C472.5 147.286 572 4.09856e-05 655.5 0C719.565 0 704.5 147.286 704.5 211.351Z" fill="url(#paint1_linear_540_49)"/>
<path d="M380.79 290.3C386.9 305.262 404.307 312.698 417.271 303.046C431.436 292.501 443.113 278.779 451.273 262.828C463.913 238.117 467.274 209.693 460.746 182.716C454.217 155.738 438.231 131.996 415.691 115.799C393.151 99.6016 365.55 92.0238 337.899 94.4409C310.248 96.8579 265.388 88.1378 246 108C227.131 127.33 229.361 169.652 232.011 200.196C232.156 201.86 232.169 203.528 232.1 205.197C230.987 232.041 239.228 258.47 255.46 279.945C266.263 294.239 280.144 305.726 295.924 313.654C310.365 320.91 326.218 310.567 329.64 294.771V294.771C333.061 278.976 322.121 263.802 309.997 253.116C307.122 250.582 304.49 247.752 302.15 244.655C293.858 233.684 289.774 220.104 290.641 206.379C291.507 192.654 297.266 179.695 306.873 169.854C316.479 160.013 329.295 153.942 342.995 152.745C356.695 151.547 370.371 155.302 381.538 163.327C392.706 171.352 400.627 183.115 403.861 196.482C407.096 209.848 405.431 223.931 399.168 236.175C397.4 239.63 395.299 242.874 392.908 245.868C382.822 258.496 374.681 275.338 380.79 290.3V290.3Z" fill="url(#paint2_linear_540_49)"/>
<path d="M220.735 216.517C223.405 212.332 224.528 207.435 224.314 202.477C223.742 189.204 221.417 161.699 211.986 147.554C199.267 128.478 181.19 113.61 160.04 104.83C138.891 96.0503 115.618 93.7531 93.1652 98.2289C70.7128 102.705 50.0885 113.753 33.9013 129.976C17.714 146.198 6.69011 166.868 2.22405 189.37C-2.242 211.871 0.05019 235.195 8.81067 256.391C17.5712 277.587 32.4068 295.704 51.4411 308.45C61.264 315.028 71.9776 320.023 83.1929 323.318C100.68 328.454 115.746 313.225 115.746 295V284.08C115.746 269.342 102.828 257.944 90.582 249.743V249.743C83.1335 244.756 77.3279 237.666 73.8997 229.371C70.4715 221.077 69.5745 211.95 71.3222 203.144C73.0699 194.339 77.3838 186.25 83.7183 179.902C86.1344 177.48 88.803 175.354 91.6676 173.552C100.459 168.022 112.791 168.694 122.403 172.627C125.93 174.07 129.641 176.692 133.358 182.132C138.374 189.474 137.967 197.105 129.245 198.833C121.591 200.349 111.491 202.371 103.18 205.681C97.4384 207.968 92.8332 212.982 92.6869 219.16C92.4617 228.67 98.5466 238.88 117.243 246C142.188 255.5 159.65 256.391 185.094 247.5C202.841 241.299 215.002 225.505 220.735 216.517Z" fill="url(#paint3_linear_540_49)"/>
<rect x="887" y="61" width="80" height="43" rx="21.5" fill="url(#paint4_linear_540_49)"/>
<circle cx="830" cy="210" r="116" fill="url(#paint5_linear_540_49)"/>
<path d="M704.5 211.351C704.5 275.416 652.565 327.351 588.5 327.351C524.435 327.351 472.5 275.416 472.5 211.351C472.5 147.286 572 4.09856e-05 655.5 0C719.565 0 704.5 147.286 704.5 211.351Z" fill="url(#paint6_linear_540_49)"/>
<path d="M380.79 290.3C386.9 305.262 404.307 312.698 417.271 303.046C431.436 292.501 443.113 278.779 451.273 262.828C463.913 238.117 467.274 209.693 460.746 182.716C454.217 155.738 438.231 131.996 415.691 115.799C393.151 99.6016 365.55 92.0238 337.899 94.4409C310.248 96.8579 265.388 88.1378 246 108C227.131 127.33 229.361 169.652 232.011 200.196C232.156 201.86 232.169 203.528 232.1 205.197C230.987 232.041 239.228 258.47 255.46 279.945C266.263 294.239 280.144 305.726 295.924 313.654C310.365 320.91 326.218 310.567 329.64 294.771V294.771C333.061 278.976 322.121 263.802 309.997 253.116C307.122 250.582 304.49 247.752 302.15 244.655C293.858 233.684 289.774 220.104 290.641 206.379C291.507 192.654 297.266 179.695 306.873 169.854C316.479 160.013 329.295 153.942 342.995 152.745C356.695 151.547 370.371 155.302 381.538 163.327C392.706 171.352 400.627 183.115 403.861 196.482C407.096 209.848 405.431 223.931 399.168 236.175C397.4 239.63 395.299 242.874 392.908 245.868C382.822 258.496 374.681 275.338 380.79 290.3V290.3Z" fill="url(#paint7_linear_540_49)"/>
<path d="M220.735 216.517C223.405 212.332 224.528 207.435 224.314 202.477C223.742 189.204 221.417 161.699 211.986 147.554C199.267 128.478 181.19 113.61 160.04 104.83C138.891 96.0503 115.618 93.7531 93.1652 98.2289C70.7128 102.705 50.0885 113.753 33.9013 129.976C17.714 146.198 6.69011 166.868 2.22405 189.37C-2.242 211.871 0.05019 235.195 8.81067 256.391C17.5712 277.587 32.4068 295.704 51.4411 308.45C61.264 315.028 71.9776 320.023 83.1929 323.318C100.68 328.454 115.746 313.225 115.746 295V284.08C115.746 269.342 102.828 257.944 90.582 249.743V249.743C83.1335 244.756 77.3279 237.666 73.8997 229.371C70.4715 221.077 69.5745 211.95 71.3222 203.144C73.0699 194.339 77.3838 186.25 83.7183 179.902C86.1344 177.48 88.803 175.354 91.6676 173.552C100.459 168.022 112.791 168.694 122.403 172.627C125.93 174.07 129.641 176.692 133.358 182.132C138.374 189.474 137.967 197.105 129.245 198.833C121.591 200.349 111.491 202.371 103.18 205.681C97.4384 207.968 92.8332 212.982 92.6869 219.16C92.4617 228.67 98.5466 238.88 117.243 246C142.188 255.5 159.65 256.391 185.094 247.5C202.841 241.299 215.002 225.505 220.735 216.517Z" fill="url(#paint8_linear_540_49)"/>
<rect x="887" y="61" width="80" height="43" rx="21.5" fill="url(#paint9_linear_540_49)"/>
<defs>
<linearGradient id="paint0_linear_540_49" x1="830" y1="94" x2="830" y2="326" gradientUnits="userSpaceOnUse">
<stop stop-color="#5A189A"/>
<stop offset="1" stop-color="#26CCA9"/>
</linearGradient>
<linearGradient id="paint1_linear_540_49" x1="603" y1="93.9999" x2="603" y2="326" gradientUnits="userSpaceOnUse">
<stop stop-color="#5A189A"/>
<stop offset="1" stop-color="#26CCA9"/>
</linearGradient>
<linearGradient id="paint2_linear_540_49" x1="348" y1="94" x2="348" y2="326" gradientUnits="userSpaceOnUse">
<stop stop-color="#5A189A"/>
<stop offset="1" stop-color="#26CCA9"/>
</linearGradient>
<linearGradient id="paint3_linear_540_49" x1="128.718" y1="94" x2="128.718" y2="326" gradientUnits="userSpaceOnUse">
<stop stop-color="#5A189A"/>
<stop offset="1" stop-color="#26CCA9"/>
</linearGradient>
<linearGradient id="paint4_linear_540_49" x1="927" y1="61" x2="927" y2="104" gradientUnits="userSpaceOnUse">
<stop stop-color="#5A189A"/>
<stop offset="1" stop-color="#26CCA9"/>
</linearGradient>
<linearGradient id="paint5_linear_540_49" x1="830" y1="94" x2="830" y2="326" gradientUnits="userSpaceOnUse">
<stop stop-color="#5A189A"/>
<stop offset="1" stop-color="#26CCA9"/>
</linearGradient>
<linearGradient id="paint6_linear_540_49" x1="603" y1="93.9999" x2="603" y2="326" gradientUnits="userSpaceOnUse">
<stop stop-color="#5A189A"/>
<stop offset="1" stop-color="#26CCA9"/>
</linearGradient>
<linearGradient id="paint7_linear_540_49" x1="348" y1="94" x2="348" y2="326" gradientUnits="userSpaceOnUse">
<stop stop-color="#5A189A"/>
<stop offset="1" stop-color="#26CCA9"/>
</linearGradient>
<linearGradient id="paint8_linear_540_49" x1="128.718" y1="94" x2="128.718" y2="326" gradientUnits="userSpaceOnUse">
<stop stop-color="#5A189A"/>
<stop offset="1" stop-color="#26CCA9"/>
</linearGradient>
<linearGradient id="paint9_linear_540_49" x1="927" y1="61" x2="927" y2="104" gradientUnits="userSpaceOnUse">
<stop stop-color="#5A189A"/>
<stop offset="1" stop-color="#26CCA9"/>
</linearGradient>
</defs>
</svg>
